<svg width="199" height="22" viewBox="0 0 199 22" fill="none" xmlns="http://www.w3.org/2000/svg">
<path d="M49.7725 5.57227C51.2844 5.57229 52.6567 5.91678 53.8887 6.60742C55.1205 7.29803 56.1002 8.24104 56.8281 9.43555C57.5748 10.6302 57.9482 12.0024 57.9482 13.5518C57.9482 15.0824 57.5748 16.4546 56.8281 17.668C56.1002 18.8625 55.1205 19.8055 53.8887 20.4961C52.6567 21.1867 51.2844 21.5322 49.7725 21.5322C48.2605 21.5322 46.8786 21.1868 45.6279 20.4961C44.396 19.8054 43.4068 18.8626 42.6602 17.668C41.9322 16.4546 41.5684 15.0824 41.5684 13.5518C41.5684 12.0024 41.9322 10.6302 42.6602 9.43555C43.4068 8.24098 44.396 7.29806 45.6279 6.60742C46.8786 5.91676 48.2605 5.57227 49.7725 5.57227ZM86.7959 5.57227C88.3078 5.57229 89.6802 5.91678 90.9121 6.60742C92.144 7.29803 93.1236 8.24104 93.8516 9.43555C94.5982 10.6302 94.9717 12.0024 94.9717 13.5518C94.9717 15.0824 94.5982 16.4546 93.8516 17.668C93.1236 18.8625 92.144 19.8055 90.9121 20.4961C89.6802 21.1867 88.3078 21.5322 86.7959 21.5322C85.2839 21.5322 83.902 21.1868 82.6514 20.4961C81.4195 19.8054 80.4302 18.8626 79.6836 17.668C78.9556 16.4546 78.5918 15.0824 78.5918 13.5518C78.5918 12.0024 78.9556 10.6302 79.6836 9.43555C80.4302 8.24098 81.4195 7.29806 82.6514 6.60742C83.902 5.91676 85.2839 5.57227 86.7959 5.57227ZM144.606 5.57227C145.894 5.57227 147.033 5.80493 148.022 6.27148C149.012 6.73807 149.777 7.39165 150.318 8.23145C150.878 9.05278 151.159 10.0149 151.159 11.1162V21.1963H147.238V19.75C147.066 19.927 146.89 20.0927 146.707 20.2441C146.166 20.6735 145.559 20.991 144.887 21.1963C144.215 21.4202 143.468 21.5322 142.646 21.5322C141.545 21.5322 140.594 21.3546 139.791 21C138.988 20.6454 138.372 20.1415 137.942 19.4883C137.513 18.8163 137.299 18.0221 137.299 17.1074C137.299 16.2489 137.495 15.4931 137.887 14.8398C138.279 14.1679 138.876 13.6081 139.679 13.1602C140.5 12.7122 141.517 12.3947 142.73 12.208L146.959 11.5244V11.1162C146.959 10.5376 146.725 10.0521 146.259 9.66016C145.811 9.26822 145.195 9.07233 144.411 9.07227C143.665 9.07227 143.001 9.27693 142.423 9.6875C141.863 10.0981 141.452 10.6396 141.19 11.3115L137.831 9.71582C138.13 8.8572 138.605 8.11988 139.259 7.50391C139.912 6.88801 140.696 6.41216 141.61 6.07617C142.525 5.7402 143.524 5.5723 144.606 5.57227ZM170.003 21.1963H166.083V19.75C165.615 20.2619 165.036 20.6699 164.347 20.9717C163.451 21.345 162.48 21.5322 161.435 21.5322C159.941 21.5322 158.607 21.177 157.431 20.4678C156.255 19.7585 155.321 18.7972 154.631 17.584C153.959 16.3707 153.623 15.0264 153.623 13.5518C153.623 12.0584 153.969 10.7142 154.659 9.51953C155.35 8.30633 156.283 7.34502 157.459 6.63574C158.635 5.92642 159.951 5.57227 161.407 5.57227C162.527 5.5723 163.516 5.78652 164.375 6.21582C164.924 6.47283 165.4 6.7994 165.803 7.19531V0H170.003V21.1963ZM179.771 5.57227C181.058 5.57227 182.197 5.80493 183.187 6.27148C184.176 6.73807 184.941 7.39165 185.482 8.23145C186.042 9.05278 186.323 10.0149 186.323 11.1162V21.1963H182.402V19.75C182.23 19.927 182.054 20.0927 181.871 20.2441C181.33 20.6735 180.723 20.991 180.051 21.1963C179.379 21.4202 178.632 21.5322 177.811 21.5322C176.709 21.5322 175.758 21.3546 174.955 21C174.152 20.6454 173.536 20.1415 173.106 19.4883C172.677 18.8163 172.463 18.0221 172.463 17.1074C172.463 16.2489 172.659 15.4931 173.051 14.8398C173.443 14.1679 174.04 13.6081 174.843 13.1602C175.664 12.7122 176.681 12.3947 177.895 12.208L182.123 11.5244V11.1162C182.123 10.5376 181.889 10.0521 181.423 9.66016C180.975 9.26822 180.359 9.07233 179.575 9.07227C178.829 9.07227 178.166 9.27693 177.587 9.6875C177.027 10.0981 176.616 10.6396 176.354 11.3115L172.995 9.71582C173.294 8.8572 173.77 8.11988 174.423 7.50391C175.076 6.88801 175.86 6.41216 176.774 6.07617C177.689 5.7402 178.688 5.5723 179.771 5.57227ZM65.8887 5.9082H69.4727V9.54785H65.8887V15.3994C65.8887 15.9221 65.9823 16.3612 66.1689 16.7158C66.3556 17.0518 66.6451 17.3037 67.0371 17.4717C67.4291 17.6397 67.9145 17.7236 68.4932 17.7236C68.6238 17.7236 68.7734 17.715 68.9414 17.6963C69.1092 17.6776 69.2862 17.6583 69.4727 17.6396V21.1963C69.1929 21.2336 68.8758 21.2703 68.5215 21.3076C68.1668 21.3449 67.83 21.3643 67.5127 21.3643C65.6649 21.3642 64.2278 20.8691 63.2012 19.8799C62.1932 18.8719 61.6895 17.4717 61.6895 15.6797V9.54785H59.1133V5.9082H59.2529C60.0369 5.9082 60.6343 5.71134 61.0449 5.31934C61.4742 4.92734 61.6895 4.33959 61.6895 3.55566V2.43555H65.8887V5.9082ZM33.7646 5.57227C34.8659 5.5723 35.8368 5.81451 36.6768 6.2998C37.5353 6.78512 38.2071 7.46653 38.6924 8.34375C39.1777 9.20242 39.4199 10.2108 39.4199 11.3682V21.1963H35.2207V12.2637C35.2207 11.6664 35.1087 11.1529 34.8848 10.7236C34.6794 10.2943 34.3803 9.95849 33.9883 9.71582C33.5963 9.4732 33.1204 9.35159 32.5605 9.35156C32.0193 9.35156 31.5434 9.47328 31.1328 9.71582C30.7408 9.95849 30.432 10.2943 30.208 10.7236C30.0027 11.1529 29.9004 11.6664 29.9004 12.2637V21.1963H25.7002V12.2637C25.7002 11.6664 25.5882 11.1529 25.3643 10.7236C25.159 10.2945 24.8606 9.95844 24.4688 9.71582C24.0767 9.47315 23.6 9.35156 23.04 9.35156C22.4988 9.35161 22.0229 9.4732 21.6123 9.71582C21.2204 9.95845 20.9125 10.2944 20.6885 10.7236C20.4832 11.1529 20.3809 11.6664 20.3809 12.2637V21.1963H16.1807V5.9082H20.1006V7.75586C20.3874 7.19667 20.7885 6.74873 21.3047 6.41211C22.1633 5.85214 23.1901 5.57227 24.3848 5.57227C25.6539 5.57233 26.7649 5.89849 27.7168 6.55176C28.2832 6.92214 28.7245 7.36964 29.043 7.89258C29.4479 7.30062 29.9294 6.82547 30.4883 6.46777C31.4216 5.87044 32.514 5.57227 33.7646 5.57227ZM105.65 5.57227C106.808 5.57232 107.815 5.81457 108.674 6.2998C109.551 6.78511 110.232 7.46648 110.718 8.34375C111.203 9.20242 111.446 10.2108 111.446 11.3682V21.1963H107.246V12.2637C107.246 11.6664 107.124 11.1529 106.882 10.7236C106.658 10.2945 106.331 9.95844 105.902 9.71582C105.492 9.4732 105.006 9.3516 104.446 9.35156C103.905 9.35156 103.42 9.47322 102.99 9.71582C102.561 9.95843 102.225 10.2944 101.982 10.7236C101.758 11.1529 101.646 11.6664 101.646 12.2637V21.1963H97.4463V5.9082H101.366V7.77344C101.72 7.1038 102.212 6.59316 102.85 6.24414C103.652 5.79614 104.586 5.57227 105.65 5.57227ZM198.363 9.37988H197.047C196.02 9.37992 195.189 9.6974 194.555 10.332C193.92 10.948 193.604 11.8254 193.604 12.9639V21.1963H189.403V5.9082H193.323V8.18652C193.657 7.36221 194.114 6.77958 194.695 6.43945C195.479 5.97296 196.403 5.74027 197.467 5.74023H198.363V9.37988ZM14.0283 4.11621H4.33984V8.84766H13.4678V12.6279H4.33984V17.416H14.0283V21.1953H0V0.335938H14.0283V4.11621ZM76.1348 21.1953H71.9346V5.9082H76.1348V21.1953ZM127.527 0.335938C128.965 0.33598 130.234 0.587844 131.335 1.0918C132.455 1.5958 133.332 2.3427 133.967 3.33203C134.601 4.32135 134.919 5.54404 134.919 7C134.919 8.41843 134.593 9.63176 133.939 10.6396C133.286 11.629 132.408 12.3759 131.307 12.8799L136.067 21.1953H131.195L126.967 13.6357H123.887V21.1953H119.547V0.335938H127.527ZM143.486 15.2314C142.889 15.3434 142.432 15.5396 142.115 15.8193C141.798 16.0807 141.639 16.4638 141.639 16.9678C141.639 17.4344 141.816 17.7982 142.171 18.0596C142.525 18.3208 142.964 18.4521 143.486 18.4521C144.177 18.4521 144.784 18.3025 145.307 18.0039C145.829 17.7052 146.231 17.3038 146.511 16.7998C146.809 16.2771 146.959 15.7078 146.959 15.0918V14.6113L143.486 15.2314ZM178.65 15.2314C178.054 15.3434 177.597 15.5396 177.279 15.8193C176.962 16.0807 176.803 16.4638 176.803 16.9678C176.803 17.4344 176.98 17.7982 177.335 18.0596C177.69 18.3208 178.128 18.4521 178.65 18.4521C179.341 18.4521 179.948 18.3025 180.471 18.0039C180.993 17.7052 181.395 17.3038 181.675 16.7998C181.973 16.2771 182.123 15.7078 182.123 15.0918V14.6113L178.65 15.2314ZM49.7725 9.35156C49.0071 9.35156 48.3345 9.53878 47.7559 9.91211C47.1775 10.2667 46.7207 10.7612 46.3848 11.3955C46.0674 12.0115 45.9082 12.7304 45.9082 13.5518C45.9082 14.373 46.0675 15.1007 46.3848 15.7354C46.7207 16.3699 47.1774 16.8651 47.7559 17.2197C48.3345 17.5744 49.0071 17.752 49.7725 17.752C50.5377 17.7519 51.2008 17.5744 51.7607 17.2197C52.3392 16.8651 52.7872 16.3699 53.1045 15.7354C53.4403 15.1008 53.6084 14.3729 53.6084 13.5518C53.6084 12.7304 53.4405 12.0115 53.1045 11.3955C52.7873 10.7611 52.3391 10.2667 51.7607 9.91211C51.2008 9.53881 50.5377 9.35159 49.7725 9.35156ZM86.7959 9.35156C86.0306 9.35156 85.358 9.53878 84.7793 9.91211C84.201 10.2667 83.7441 10.7612 83.4082 11.3955C83.0909 12.0115 82.9316 12.7304 82.9316 13.5518C82.9316 14.373 83.0909 15.1007 83.4082 15.7354C83.7441 16.3699 84.2008 16.8651 84.7793 17.2197C85.358 17.5744 86.0306 17.752 86.7959 17.752C87.5612 17.7519 88.2242 17.5744 88.7842 17.2197C89.3627 16.8651 89.8107 16.3699 90.1279 15.7354C90.4638 15.1008 90.6318 14.3729 90.6318 13.5518C90.6318 12.7304 90.4639 12.0115 90.1279 11.3955C89.8107 10.7611 89.3626 10.2667 88.7842 9.91211C88.2242 9.53881 87.5612 9.35159 86.7959 9.35156ZM161.939 9.35156C161.174 9.35156 160.483 9.53878 159.867 9.91211C159.27 10.2667 158.803 10.7609 158.467 11.3955C158.131 12.0115 157.963 12.7304 157.963 13.5518C157.963 14.3729 158.131 15.1008 158.467 15.7354C158.803 16.37 159.27 16.8651 159.867 17.2197C160.483 17.5743 161.174 17.752 161.939 17.752C162.705 17.7519 163.377 17.5743 163.955 17.2197C164.534 16.8651 164.982 16.37 165.299 15.7354C165.635 15.1008 165.803 14.373 165.803 13.5518C165.803 12.7305 165.635 12.0028 165.299 11.3682C164.982 10.7335 164.534 10.2385 163.955 9.88379C163.377 9.5292 162.705 9.35164 161.939 9.35156ZM123.887 9.85547H127.555C128.171 9.85547 128.703 9.73485 129.151 9.49219C129.599 9.24953 129.944 8.91269 130.187 8.4834C130.448 8.05414 130.579 7.55988 130.579 7C130.579 6.4214 130.448 5.91758 130.187 5.48828C129.944 5.059 129.599 4.72215 129.151 4.47949C128.703 4.23683 128.171 4.11621 127.555 4.11621H123.887V9.85547ZM76.1348 4.53613H71.9346V0.335938H76.1348V4.53613Z" fill="url(#paint0_linear_1207_2200)"/>
<defs>
<linearGradient id="paint0_linear_1207_2200" x1="-8.13216" y1="-2.32077" x2="99.2545" y2="110.073" gradientUnits="userSpaceOnUse">
<stop offset="0.115385" stop-color="#FF6DE2"/>
<stop offset="0.495192" stop-color="#6A7BFF"/>
<stop offset="1" stop-color="#40B6FF"/>
</linearGradient>
</defs>
</svg>
