<svg width="30" height="30" viewBox="0 0 30 30" fill="none" xmlns="http://www.w3.org/2000/svg">
<path d="M20.875 21.625V24.125C20.875 24.2917 20.9375 24.4375 21.0625 24.5625C21.1875 24.6875 21.3333 24.75 21.5 24.75C21.6667 24.75 21.8125 24.6875 21.9375 24.5625C22.0625 24.4375 22.125 24.2917 22.125 24.125V21.625H24.625C24.7917 21.625 24.9375 21.5625 25.0625 21.4375C25.1875 21.3125 25.25 21.1667 25.25 21C25.25 20.8333 25.1875 20.6875 25.0625 20.5625C24.9375 20.4375 24.7917 20.375 24.625 20.375H22.125V17.875C22.125 17.7083 22.0625 17.5625 21.9375 17.4375C21.8125 17.3125 21.6667 17.25 21.5 17.25C21.3333 17.25 21.1875 17.3125 21.0625 17.4375C20.9375 17.5625 20.875 17.7083 20.875 17.875V20.375H18.375C18.2083 20.375 18.0625 20.4375 17.9375 20.5625C17.8125 20.6875 17.75 20.8333 17.75 21C17.75 21.1667 17.8125 21.3125 17.9375 21.4375C18.0625 21.5625 18.2083 21.625 18.375 21.625H20.875ZM21.5 27.25C19.7708 27.25 18.2971 26.6404 17.0788 25.4213C15.8604 24.2021 15.2508 22.7283 15.25 21C15.2492 19.2717 15.8588 17.7979 17.0788 16.5788C18.2988 15.3596 19.7725 14.75 21.5 14.75C23.2275 14.75 24.7017 15.3596 25.9225 16.5788C27.1433 17.7979 27.7525 19.2717 27.75 21C27.7475 22.7283 27.1379 24.2025 25.9213 25.4225C24.7046 26.6425 23.2308 27.2517 21.5 27.25ZM4 22.25V11C4 10.6042 4.08875 10.2292 4.26625 9.875C4.44375 9.52083 4.68833 9.22917 5 9L12.5 3.375C12.9375 3.04167 13.4375 2.875 14 2.875C14.5625 2.875 15.0625 3.04167 15.5 3.375L23 9C23.3125 9.22917 23.5575 9.52083 23.735 9.875C23.9125 10.2292 24.0008 10.6042 24 11V11.6562C24 11.9062 23.9008 12.0992 23.7025 12.235C23.5042 12.3708 23.2804 12.4175 23.0313 12.375C21.6354 12.125 20.2554 12.2137 18.8913 12.6412C17.5271 13.0687 16.3342 13.7925 15.3125 14.8125C14.1875 15.9375 13.4217 17.25 13.015 18.75C12.6083 20.25 12.6138 21.7604 13.0313 23.2813C13.1354 23.6563 13.0833 23.995 12.875 24.2975C12.6667 24.6 12.3854 24.7508 12.0313 24.75H6.5C5.8125 24.75 5.22417 24.5054 4.735 24.0163C4.24583 23.5271 4.00083 22.9383 4 22.25Z" fill="currentColor"/>
</svg>
