<svg width="18" height="18" viewBox="0 0 18 18" fill="none" xmlns="http://www.w3.org/2000/svg">
<path fill-rule="evenodd" clip-rule="evenodd" d="M8.99999 1.5C8.40674 1.5 7.83749 1.7355 7.41749 2.1555L6.74774 2.82525C6.60854 2.96253 6.42124 3.04004 6.22574 3.04125H5.27999C4.98597 3.04115 4.6948 3.09899 4.42314 3.21146C4.15148 3.32394 3.90464 3.48884 3.69674 3.69674C3.48883 3.90465 3.32393 4.15149 3.21145 4.42315C3.09898 4.69481 3.04114 4.98598 3.04124 5.28V6.2265C3.04003 6.422 2.96252 6.6093 2.82524 6.7485L2.15549 7.41825C1.73579 7.83796 1.5 8.4072 1.5 9.00075C1.5 9.5943 1.73579 10.1635 2.15549 10.5833L2.82524 11.253C2.96252 11.3922 3.04003 11.5795 3.04124 11.775V12.7215C3.04124 13.3151 3.27703 13.8843 3.69674 14.304C4.11644 14.7237 4.68569 14.9595 5.27924 14.9595H6.22574C6.42149 14.9595 6.60974 15.0375 6.74774 15.1755L7.41749 15.8453C7.8372 16.265 8.40644 16.5007 8.99999 16.5007C9.59354 16.5007 10.1628 16.265 10.5825 15.8453L11.2522 15.1755C11.3914 15.0382 11.5787 14.9607 11.7742 14.9595H12.7207C13.3143 14.9595 13.8835 14.7237 14.3032 14.304C14.723 13.8843 14.9587 13.3151 14.9587 12.7215V11.775C14.9587 11.5792 15.0367 11.391 15.1747 11.253L15.8445 10.5833C16.2642 10.1635 16.5 9.5943 16.5 9.00075C16.5 8.4072 16.2642 7.83796 15.8445 7.41825L15.1747 6.7485C15.0375 6.6093 14.96 6.422 14.9587 6.2265V5.28C14.9587 4.68645 14.723 4.1172 14.3032 3.69749C13.8835 3.27779 13.3143 3.042 12.7207 3.042H11.7742C11.5787 3.04079 11.3914 2.96328 11.2522 2.826L10.5825 2.15625C10.3748 1.94816 10.1282 1.78309 9.85662 1.67048C9.58506 1.55787 9.29396 1.49994 8.99999 1.5ZM11.7622 7.2975C11.8355 7.2287 11.8942 7.14589 11.9348 7.05397C11.9754 6.96205 11.9972 6.86291 11.9987 6.76242C12.0003 6.66194 11.9816 6.56216 11.9439 6.46903C11.9061 6.37589 11.8501 6.29129 11.779 6.22026C11.7079 6.14922 11.6232 6.0932 11.5301 6.05551C11.4369 6.01782 11.3371 5.99924 11.2367 6.00087C11.1362 6.00251 11.037 6.02431 10.9451 6.06501C10.8533 6.1057 10.7705 6.16444 10.7017 6.23775L7.51199 9.4275L6.55424 8.46975C6.41361 8.32902 6.22283 8.24992 6.02388 8.24985C5.82493 8.24978 5.6341 8.32874 5.49337 8.46937C5.35263 8.61001 5.27353 8.80078 5.27346 8.99973C5.27339 9.19869 5.35236 9.38952 5.49299 9.53025L6.98174 11.0182C7.12239 11.1589 7.31312 11.2378 7.51199 11.2378C7.71086 11.2378 7.90159 11.1589 8.04224 11.0182L11.7622 7.29825V7.2975Z" fill="#007AFF"/>
</svg>
