<svg width="24" height="24" viewBox="0 0 24 24" fill="none" xmlns="http://www.w3.org/2000/svg">
<path d="M18.3 18.29C18.2075 18.3827 18.0976 18.4563 17.9766 18.5065C17.8556 18.5566 17.726 18.5825 17.595 18.5825C17.464 18.5825 17.3343 18.5566 17.2134 18.5065C17.0924 18.4563 16.9825 18.3827 16.89 18.29L12 13.41L7.10999 18.3C7.01741 18.3926 6.9075 18.466 6.78654 18.5161C6.66557 18.5663 6.53593 18.592 6.40499 18.592C6.27406 18.592 6.14442 18.5663 6.02345 18.5161C5.90249 18.466 5.79258 18.3926 5.69999 18.3C5.60741 18.2074 5.53397 18.0975 5.48387 17.9766C5.43376 17.8556 5.40797 17.726 5.40797 17.595C5.40797 17.4641 5.43376 17.3344 5.48387 17.2135C5.53397 17.0925 5.60741 16.9826 5.69999 16.89L10.59 12L5.69999 7.11002C5.60741 7.01744 5.53397 6.90753 5.48387 6.78656C5.43376 6.6656 5.40797 6.53595 5.40797 6.40502C5.40797 6.27409 5.43376 6.14444 5.48387 6.02348C5.53397 5.90251 5.60741 5.7926 5.69999 5.70002C5.79258 5.60744 5.90249 5.534 6.02345 5.48389C6.14442 5.43379 6.27406 5.408 6.40499 5.408C6.53593 5.408 6.66557 5.43379 6.78654 5.48389C6.9075 5.534 7.01741 5.60744 7.10999 5.70002L12 10.59L16.89 5.70002C16.9826 5.60744 17.0925 5.534 17.2135 5.48389C17.3344 5.43379 17.4641 5.408 17.595 5.408C17.7259 5.408 17.8556 5.43379 17.9765 5.48389C18.0975 5.534 18.2074 5.60744 18.3 5.70002C18.3926 5.7926 18.466 5.90251 18.5161 6.02348C18.5662 6.14444 18.592 6.27409 18.592 6.40502C18.592 6.53595 18.5662 6.6656 18.5161 6.78656C18.466 6.90753 18.3926 7.01744 18.3 7.11002L13.41 12L18.3 16.89C18.68 17.27 18.68 17.91 18.3 18.29Z" fill="black"/>
</svg>
