<svg width="20" height="20" viewBox="0 0 20 20" fill="none" xmlns="http://www.w3.org/2000/svg">
<path fill-rule="evenodd" clip-rule="evenodd" d="M3 10C3 6.1339 6.1339 3 10 3C13.8661 3 17 6.1339 17 10C17 13.8661 13.8661 17 10 17C8.96864 17.0006 7.94988 16.7733 7.0166 16.3343L3.8407 16.9853C3.72731 17.0085 3.60993 17.0032 3.49909 16.9699C3.38824 16.9366 3.28739 16.8763 3.20555 16.7945C3.12371 16.7126 3.06344 16.6118 3.03013 16.5009C2.99682 16.3901 2.99152 16.2727 3.0147 16.1593L3.6657 12.9834C3.22673 12.0501 2.99941 11.0314 3 10ZM6.85 8.95C6.57152 8.95 6.30445 9.06062 6.10754 9.25754C5.91063 9.45445 5.8 9.72152 5.8 10V10.007C5.8 10.2855 5.91063 10.5525 6.10754 10.7495C6.30445 10.9464 6.57152 11.057 6.85 11.057H6.857C7.13548 11.057 7.40255 10.9464 7.59946 10.7495C7.79638 10.5525 7.907 10.2855 7.907 10.007V10C7.907 9.72152 7.79638 9.45445 7.59946 9.25754C7.40255 9.06062 7.13548 8.95 6.857 8.95H6.85ZM10 8.95C9.72152 8.95 9.45445 9.06062 9.25754 9.25754C9.06063 9.45445 8.95 9.72152 8.95 10V10.007C8.95 10.2855 9.06063 10.5525 9.25754 10.7495C9.45445 10.9464 9.72152 11.057 10 11.057H10.007C10.2855 11.057 10.5525 10.9464 10.7495 10.7495C10.9464 10.5525 11.057 10.2855 11.057 10.007V10C11.057 9.72152 10.9464 9.45445 10.7495 9.25754C10.5525 9.06062 10.2855 8.95 10.007 8.95H10ZM12.1 10C12.1 9.72152 12.2106 9.45445 12.4075 9.25754C12.6045 9.06062 12.8715 8.95 13.15 8.95H13.157C13.4355 8.95 13.7025 9.06062 13.8995 9.25754C14.0964 9.45445 14.207 9.72152 14.207 10V10.007C14.207 10.2855 14.0964 10.5525 13.8995 10.7495C13.7025 10.9464 13.4355 11.057 13.157 11.057H13.15C12.8715 11.057 12.6045 10.9464 12.4075 10.7495C12.2106 10.5525 12.1 10.2855 12.1 10.007V10Z" fill="currentColor"/>
</svg>
