<svg width="28" height="28" viewBox="0 0 28 28" fill="none" xmlns="http://www.w3.org/2000/svg">
<path d="M13.9883 2.33334C7.54831 2.33334 2.33331 7.56001 2.33331 14C2.33331 20.44 7.54831 25.6667 13.9883 25.6667C20.44 25.6667 25.6666 20.44 25.6666 14C25.6666 7.56001 20.44 2.33334 13.9883 2.33334ZM9.91665 9.33334C10.885 9.33334 11.6666 10.115 11.6666 11.0833C11.6666 12.0517 10.885 12.8333 9.91665 12.8333C8.94831 12.8333 8.16665 12.0517 8.16665 11.0833C8.16665 10.115 8.94831 9.33334 9.91665 9.33334ZM14 21C11.34 21 9.07665 19.0633 8.16665 16.3333H19.8333C18.9233 19.0633 16.66 21 14 21ZM18.0833 12.8333C17.115 12.8333 16.3333 12.0517 16.3333 11.0833C16.3333 10.115 17.115 9.33334 18.0833 9.33334C19.0516 9.33334 19.8333 10.115 19.8333 11.0833C19.8333 12.0517 19.0516 12.8333 18.0833 12.8333Z" fill="currentColor"/>
</svg>
