<svg width="28" height="28" viewBox="0 0 28 28" fill="none" xmlns="http://www.w3.org/2000/svg">
<path d="M5.83333 25.6667C5.19167 25.6667 4.64256 25.4384 4.186 24.9818C3.72944 24.5253 3.50078 23.9758 3.5 23.3333V7.00001C3.5 6.35835 3.72867 5.80924 4.186 5.35268C4.64333 4.89612 5.19244 4.66746 5.83333 4.66668H7V3.50001C7 3.16946 7.112 2.89257 7.336 2.66935C7.56 2.44613 7.83689 2.33413 8.16667 2.33335C8.49644 2.33257 8.77372 2.44457 8.9985 2.66935C9.22328 2.89413 9.33489 3.17101 9.33333 3.50001V4.66668H18.6667V3.50001C18.6667 3.16946 18.7787 2.89257 19.0027 2.66935C19.2267 2.44613 19.5036 2.33413 19.8333 2.33335C20.1631 2.33257 20.4404 2.44457 20.6652 2.66935C20.8899 2.89413 21.0016 3.17101 21 3.50001V4.66668H22.1667C22.8083 4.66668 23.3578 4.89535 23.8152 5.35268C24.2725 5.81001 24.5008 6.35913 24.5 7.00001V23.3333C24.5 23.975 24.2717 24.5245 23.8152 24.9818C23.3586 25.4392 22.8091 25.6675 22.1667 25.6667H5.83333ZM5.83333 23.3333H22.1667V11.6667H5.83333V23.3333ZM9.33333 16.3333C9.00278 16.3333 8.72589 16.2213 8.50267 15.9973C8.27944 15.7733 8.16744 15.4965 8.16667 15.1667C8.16589 14.8369 8.27789 14.56 8.50267 14.336C8.72744 14.112 9.00433 14 9.33333 14H18.6667C18.9972 14 19.2745 14.112 19.4985 14.336C19.7225 14.56 19.8341 14.8369 19.8333 15.1667C19.8326 15.4965 19.7206 15.7737 19.4973 15.9985C19.2741 16.2233 18.9972 16.3349 18.6667 16.3333H9.33333ZM9.33333 21C9.00278 21 8.72589 20.888 8.50267 20.664C8.27944 20.44 8.16744 20.1631 8.16667 19.8333C8.16589 19.5036 8.27789 19.2267 8.50267 19.0027C8.72744 18.7787 9.00433 18.6667 9.33333 18.6667H15.1667C15.4972 18.6667 15.7745 18.7787 15.9985 19.0027C16.2225 19.2267 16.3341 19.5036 16.3333 19.8333C16.3326 20.1631 16.2206 20.4404 15.9973 20.6652C15.7741 20.89 15.4972 21.0016 15.1667 21H9.33333Z" fill="currentColor"/>
</svg>
