<svg width="28" height="28" viewBox="0 0 28 28" fill="none" xmlns="http://www.w3.org/2000/svg">
<path d="M13.6 3C15.0587 3 16.4576 3.57946 17.4891 4.61091C18.5205 5.64236 19.1 7.04131 19.1 8.5C19.1 9.95869 18.5205 11.3576 17.4891 12.3891C16.4576 13.4205 15.0587 14 13.6 14C12.1413 14 10.7424 13.4205 9.71092 12.3891C8.67947 11.3576 8.10001 9.95869 8.10001 8.5C8.10001 7.04131 8.67947 5.64236 9.71092 4.61091C10.7424 3.57946 12.1413 3 13.6 3ZM13.6 25C13.6 25 24.6 25 24.6 22.25C24.6 18.95 19.2375 15.375 13.6 15.375C7.96251 15.375 2.60001 18.95 2.60001 22.25C2.60001 25 13.6 25 13.6 25Z" fill="currentColor"/>
</svg>
