<svg width="24" height="24" viewBox="0 0 24 24" fill="none" xmlns="http://www.w3.org/2000/svg">
<path fill-rule="evenodd" clip-rule="evenodd" d="M13.3001 2.48053L14.767 3.72807C15.0867 3.99988 15.4837 4.16435 15.902 4.19822L17.8214 4.35333C18.7992 4.43236 19.5755 5.20861 19.6545 6.18643L19.8096 8.10582C19.8435 8.52407 20.008 8.9211 20.2798 9.2408L21.5273 10.7077C22.1628 11.455 22.1628 12.5528 21.5273 13.3001L20.2798 14.767C20.0079 15.0867 19.8435 15.4838 19.8096 15.902L19.6544 17.8214C19.5755 18.7992 18.7992 19.5755 17.8214 19.6545L15.902 19.8097C15.4838 19.8435 15.0867 20.008 14.767 20.2798L13.3001 21.5273C12.5528 22.1628 11.455 22.1628 10.7077 21.5273L9.24079 20.2798C8.92109 20.008 8.52406 19.8435 8.1058 19.8096L6.18641 19.6545C5.2086 19.5755 4.43235 18.7992 4.35332 17.8214L4.19816 15.902C4.16429 15.4838 3.99982 15.0867 3.728 14.767L2.48052 13.3001C1.84504 12.5528 1.84504 11.455 2.48052 10.7077L3.72805 9.2408C3.99987 8.92111 4.16434 8.52407 4.19821 8.10582L4.35332 6.18643C4.43235 5.20861 5.2086 4.43236 6.18641 4.35333L8.1058 4.19818C8.52406 4.16431 8.92109 3.99984 9.24079 3.72802L10.7077 2.48053C11.455 1.84505 12.5528 1.84505 13.3001 2.48053ZM12.0044 4.00411L10.5365 5.2516C9.89725 5.79521 9.10329 6.12407 8.26691 6.19168L6.34752 6.34683L6.19166 8.26693C6.12406 9.10331 5.79519 9.89726 5.25158 10.5365L4.0041 12.0034L5.25158 13.4714C5.79518 14.1106 6.12405 14.9045 6.19166 15.7409L6.34682 17.6603L8.26691 17.8162C9.10329 17.8837 9.89724 18.2126 10.5365 18.7562L12.0034 20.0037L13.4713 18.7562C14.1106 18.2126 14.9045 17.8838 15.7408 17.8162L17.6602 17.661L17.8161 15.7409C17.8837 14.9045 18.2126 14.1106 18.7562 13.4714L20.0037 12.0044L18.7562 10.5365C18.2126 9.89725 17.8837 9.1033 17.8161 8.26693L17.661 6.34753L15.7408 6.19168C14.9045 6.12406 14.1105 5.7952 13.4713 5.2516L12.0044 4.00411ZM15.7657 8.42724L17.1798 9.84132L11 16.047L7.29294 12.3399L8.70702 10.9259L11 13.2188L15.7657 8.42724Z" fill="black"/>
</svg>
