<svg width="14" height="14" viewBox="0 0 14 14" fill="none" xmlns="http://www.w3.org/2000/svg">
<g clip-path="url(#clip0_608_1639)">
<path d="M6.99995 11.1028L3.77217 13.0473C3.62958 13.138 3.48051 13.1769 3.32495 13.1639C3.1694 13.151 3.03328 13.0991 2.91662 13.0084C2.79995 12.9176 2.70921 12.8043 2.6444 12.6685C2.57958 12.5326 2.56662 12.3802 2.60551 12.2112L3.46106 8.53616L0.602728 6.06671C0.473099 5.95004 0.39221 5.81704 0.360062 5.66771C0.327914 5.51838 0.337506 5.37267 0.388839 5.2306C0.440173 5.08853 0.517951 4.97186 0.622173 4.8806C0.726395 4.78934 0.868988 4.73101 1.04995 4.7056L4.82217 4.37504L6.28051 0.913932C6.34532 0.758377 6.44591 0.64171 6.58228 0.563932C6.71865 0.486154 6.85788 0.447266 6.99995 0.447266C7.14202 0.447266 7.28125 0.486154 7.41762 0.563932C7.55399 0.64171 7.65458 0.758377 7.7194 0.913932L9.17773 4.37504L12.95 4.7056C13.1314 4.73153 13.274 4.78986 13.3777 4.8806C13.4814 4.97134 13.5592 5.08801 13.6111 5.2306C13.6629 5.37319 13.6728 5.51916 13.6406 5.66849C13.6085 5.81782 13.5273 5.95056 13.3972 6.06671L10.5388 8.53616L11.3944 12.2112C11.4333 12.3797 11.4203 12.5321 11.3555 12.6685C11.2907 12.8049 11.2 12.9182 11.0833 13.0084C10.9666 13.0986 10.8305 13.1505 10.675 13.1639C10.5194 13.1774 10.3703 13.1385 10.2277 13.0473L6.99995 11.1028Z" fill="#FBC900"/>
</g>
<defs>
<clipPath id="clip0_608_1639">
<rect width="14" height="14" fill="white"/>
</clipPath>
</defs>
</svg>
